<svg width="159" height="109" viewBox="0 0 159 109" fill="none" xmlns="http://www.w3.org/2000/svg">
<path d="M11.4646 57.0592C14.61 54.4481 16.1828 53.1426 16.6688 52.4133C17.1549 51.684 17.7802 49.6464 19.0308 45.5712C22.4218 34.5217 32.7791 26.4609 44.9955 26.4609C49.7119 26.4609 52.0701 26.4609 52.9229 26.2019C54.1994 25.8141 54.0398 25.9011 55.0576 25.0386C55.7376 24.4625 56.8509 22.7367 59.0776 19.2851C61.3824 15.7125 64.2629 12.4982 67.6175 9.80367C74.6857 4.12659 83.5931 1 92.699 1C111.171 1 126.754 13.5291 131.289 30.4824C132.446 34.8069 133.025 36.9692 133.746 37.9131C134.466 38.857 136.46 40.0186 140.446 42.3418C144.098 44.4704 147.373 47.2458 150.072 50.5458C155.184 56.7977 158 64.6844 158 72.7538C158 92.1887 142.085 108 122.523 108H29.9913C14.0055 108 1.00041 95.0793 1 79.1974C1 70.5238 4.97926 62.4427 11.4646 57.0592Z" fill="white" stroke="#D8DAEB"/>
</svg>
