<svg width="100" height="100" viewBox="0 0 100 100" fill="none" xmlns="http://www.w3.org/2000/svg">
<path d="M40.582 18.7498C40.582 18.1515 41.067 17.6665 41.6654 17.6665H45.832C46.4304 17.6665 46.9154 18.1515 46.9154 18.7498V22.9165C46.9154 23.5148 46.4304 23.9998 45.832 23.9998H41.6654C41.067 23.9998 40.582 23.5148 40.582 22.9165V18.7498Z" fill="#59536B"/>
<path d="M53.082 18.7498C53.082 18.1515 53.567 17.6665 54.1654 17.6665H58.332C58.9304 17.6665 59.4154 18.1515 59.4154 18.7498V22.9165C59.4154 23.5148 58.9304 23.9998 58.332 23.9998H54.1654C53.567 23.9998 53.082 23.5148 53.082 22.9165V18.7498Z" fill="#59536B"/>
<path d="M53.082 31.2498C53.082 30.6515 53.567 30.1665 54.1654 30.1665H58.332C58.9304 30.1665 59.4154 30.6515 59.4154 31.2498V35.4165C59.4154 36.0148 58.9304 36.4998 58.332 36.4998H54.1654C53.567 36.4998 53.082 36.0148 53.082 35.4165V31.2498Z" fill="#59536B"/>
<path d="M53.082 43.7498C53.082 43.1515 53.567 42.6665 54.1654 42.6665H58.332C58.9304 42.6665 59.4154 43.1515 59.4154 43.7498V47.9165C59.4154 48.5148 58.9304 48.9998 58.332 48.9998H54.1654C53.567 48.9998 53.082 48.5148 53.082 47.9165V43.7498Z" fill="#59536B"/>
<path d="M53.082 56.2498C53.082 55.6515 53.567 55.1665 54.1654 55.1665H58.332C58.9304 55.1665 59.4154 55.6515 59.4154 56.2498V60.4165C59.4154 61.0148 58.9304 61.4998 58.332 61.4998H54.1654C53.567 61.4998 53.082 61.0148 53.082 60.4165V56.2498Z" fill="#59536B"/>
<path d="M53.082 68.7498C53.082 68.1515 53.567 67.6665 54.1654 67.6665H58.332C58.9304 67.6665 59.4154 68.1515 59.4154 68.7498V72.9165C59.4154 73.5148 58.9304 73.9998 58.332 73.9998H54.1654C53.567 73.9998 53.082 73.5148 53.082 72.9165V68.7498Z" fill="#59536B"/>
<path d="M71.832 47.9168C71.832 47.3185 72.317 46.8335 72.9154 46.8335H77.082C77.6804 46.8335 78.1654 47.3185 78.1654 47.9168V52.0835C78.1654 52.6818 77.6804 53.1668 77.082 53.1668H72.9154C72.317 53.1668 71.832 52.6818 71.832 52.0835V47.9168Z" fill="#59536B"/>
<path d="M71.832 60.4168C71.832 59.8185 72.317 59.3335 72.9154 59.3335H77.082C77.6804 59.3335 78.1654 59.8185 78.1654 60.4168V64.5835C78.1654 65.1818 77.6804 65.6668 77.082 65.6668H72.9154C72.317 65.6668 71.832 65.1818 71.832 64.5835V60.4168Z" fill="#59536B"/>
<path d="M71.832 72.9168C71.832 72.3185 72.317 71.8335 72.9154 71.8335H77.082C77.6804 71.8335 78.1654 72.3185 78.1654 72.9168V77.0835C78.1654 77.6818 77.6804 78.1668 77.082 78.1668H72.9154C72.317 78.1668 71.832 77.6818 71.832 77.0835V72.9168Z" fill="#59536B"/>
<path d="M21.832 43.7498C21.832 43.1515 22.317 42.6665 22.9154 42.6665H27.082C27.6804 42.6665 28.1654 43.1515 28.1654 43.7498V47.9165C28.1654 48.5148 27.6804 48.9998 27.082 48.9998H22.9154C22.317 48.9998 21.832 48.5148 21.832 47.9165V43.7498Z" fill="#59536B"/>
<path d="M34.332 43.7498C34.332 43.1515 34.817 42.6665 35.4154 42.6665H39.582C40.1804 42.6665 40.6654 43.1515 40.6654 43.7498V47.9165C40.6654 48.5148 40.1804 48.9998 39.582 48.9998H35.4154C34.817 48.9998 34.332 48.5148 34.332 47.9165V43.7498Z" fill="#59536B"/>
<path d="M21.832 56.2498C21.832 55.6515 22.317 55.1665 22.9154 55.1665H27.082C27.6804 55.1665 28.1654 55.6515 28.1654 56.2498V60.4165C28.1654 61.0148 27.6804 61.4998 27.082 61.4998H22.9154C22.317 61.4998 21.832 61.0148 21.832 60.4165V56.2498Z" fill="#59536B"/>
<path d="M21.832 68.7498C21.832 68.1515 22.317 67.6665 22.9154 67.6665H27.082C27.6804 67.6665 28.1654 68.1515 28.1654 68.7498V72.9165C28.1654 73.5148 27.6804 73.9998 27.082 73.9998H22.9154C22.317 73.9998 21.832 73.5148 21.832 72.9165V68.7498Z" fill="#59536B"/>
<path d="M34.332 56.2498C34.332 55.6515 34.817 55.1665 35.4154 55.1665H39.582C40.1804 55.1665 40.6654 55.6515 40.6654 56.2498V60.4165C40.6654 61.0148 40.1804 61.4998 39.582 61.4998H35.4154C34.817 61.4998 34.332 61.0148 34.332 60.4165V56.2498Z" fill="#59536B"/>
<path d="M34.332 68.7498C34.332 68.1515 34.817 67.6665 35.4154 67.6665H39.582C40.1804 67.6665 40.6654 68.1515 40.6654 68.7498V72.9165C40.6654 73.5148 40.1804 73.9998 39.582 73.9998H35.4154C34.817 73.9998 34.332 73.5148 34.332 72.9165V68.7498Z" fill="#59536B"/>
<path fill-rule="evenodd" clip-rule="evenodd" d="M86.4986 43.75V88.5H90.6654V90.6667H9.33203V88.5H13.4987V39.5835C13.4987 36.6839 15.8492 34.3335 18.7487 34.3335H32.2487V14.5835C32.2487 11.684 34.5991 9.3335 37.4987 9.3335H62.4987C65.3982 9.3335 67.7487 11.684 67.7487 14.5835V38.5H81.2486C84.1482 38.5 86.4986 40.8504 86.4986 43.75ZM34.4153 14.5835V34.3335H40.582V31.2498C40.582 30.6515 41.067 30.1665 41.6654 30.1665H45.832C46.4304 30.1665 46.9154 30.6515 46.9154 31.2498V35.3719L47.2485 35.67C48.3241 36.6328 48.9987 38.0286 48.9987 39.5835V88.5H65.582V14.5835C65.582 12.8806 64.2016 11.5002 62.4987 11.5002H37.4987C35.7957 11.5002 34.4153 12.8806 34.4153 14.5835ZM67.7487 88.5H84.3319V43.75C84.3319 42.0471 82.9515 40.6667 81.2486 40.6667H67.7487V88.5ZM15.6653 88.5H46.832V39.5835C46.832 37.8806 45.4516 36.5002 43.7487 36.5002H18.7487C17.0458 36.5002 15.6653 37.8806 15.6653 39.5835V88.5Z" fill="#59536B"/>
</svg>
