<svg width="100" height="100" viewBox="0 0 100 100" fill="none" xmlns="http://www.w3.org/2000/svg">
<path d="M45.518 88.1185L60.2803 73.3562L32.9427 46.0187L18.1805 60.781" stroke="#59536B" stroke-width="3"/>
<path d="M81.7404 58.7311C72.6555 57.7527 63.8343 56.9542 55.2229 67.7525" stroke="#59536B" stroke-width="4"/>
<path d="M45.3814 33.0343C46.2016 40.142 42.6477 46.4297 38.547 51.3504" stroke="#59536B" stroke-width="4"/>
<path d="M65.4743 22.7821C62.8447 34.0946 53.4305 46.5029 43.8777 56.954" stroke="#59536B" stroke-width="4"/>
<path d="M78.3233 37.8175C67.1149 42.7383 57.6834 52.9899 49.7555 62.8314" stroke="#59536B" stroke-width="4"/>
<circle cx="78.8702" cy="37.2706" r="5.07239" transform="rotate(45 78.8702 37.2706)" fill="#FEFEFF" stroke="#59536B" stroke-width="3"/>
<circle cx="81.8772" cy="58.8684" r="5.07239" transform="rotate(45 81.8772 58.8684)" fill="#FEFEFF" stroke="#59536B" stroke-width="3"/>
<circle cx="66.2949" cy="17.589" r="5.07239" transform="rotate(45 66.2949 17.589)" fill="#FEFEFF" stroke="#59536B" stroke-width="3"/>
<circle cx="44.9717" cy="26.8824" r="5.07239" transform="rotate(45 44.9717 26.8824)" fill="#FEFEFF" stroke="#59536B" stroke-width="3"/>
</svg>
