<svg width="18" height="18" viewBox="0 0 18 18" fill="none" xmlns="http://www.w3.org/2000/svg">
<path d="M14.3671 11.4402C14.287 10.6903 14.0489 9.90715 13.6785 9.17555C13.3425 8.50924 12.9016 7.87189 12.3691 7.28276C12.2194 7.11635 12.0674 6.95697 11.9889 6.88348L11.8081 6.70434C11.7639 6.65847 11.7268 6.62164 11.6901 6.58899L11.6359 6.53927C11.5768 6.48536 11.5159 6.42945 11.4653 6.37353C11.4614 6.36901 11.4571 6.36466 11.4527 6.36031C11.4281 6.33586 11.4017 6.31142 11.3722 6.28413C11.3337 6.24881 11.2901 6.20947 11.2514 6.16527C11.2464 6.15974 11.2412 6.15439 11.236 6.14886C10.9604 5.8743 10.7286 5.62469 10.5276 5.38629C10.2923 5.10554 10.1261 4.87333 9.98791 4.63125C9.82794 4.35552 9.70825 4.04865 9.63252 3.71683C9.56066 3.41632 9.51873 3.07145 9.50746 2.69058C9.49638 2.35241 9.5191 2.02745 9.54256 1.75641C9.55955 1.57594 9.57876 1.41622 9.59761 1.27509C9.6122 1.1651 9.56583 1.05561 9.47366 0.982789C9.3813 0.909796 9.25533 0.882842 9.1373 0.911135C8.96108 0.952821 8.78043 1.00807 8.60162 1.07503C8.2261 1.21382 7.85667 1.40685 7.50313 1.64943C7.05224 1.95965 6.65713 2.34286 6.32908 2.78768C5.9264 3.33128 5.64139 3.97063 5.50525 4.63443C5.34991 5.36486 5.36709 6.18904 5.55328 6.95379C5.73005 7.6941 6.07233 8.45014 6.54446 9.1424C6.79401 9.50284 7.03321 9.80419 7.27002 10.0572C7.34058 10.1367 7.5349 10.3423 7.53693 10.3446L7.61451 10.4251C7.66882 10.4809 7.70761 10.5229 7.74714 10.5658C7.78371 10.6051 7.81382 10.6377 7.84743 10.6702L7.85316 10.6756C8.22259 11.076 8.48304 11.37 8.69805 11.6302C8.93559 11.9165 9.1445 12.194 9.33642 12.4783C9.5409 12.782 9.68701 13.0475 9.79599 13.3129C9.91901 13.6147 9.99991 13.9418 10.0374 14.2865C10.072 14.5899 10.0721 14.9301 10.0383 15.3245C10.0043 15.6823 9.94284 16.0084 9.89444 16.2473C9.85824 16.4107 9.82277 16.5615 9.79045 16.6918C9.76311 16.8021 9.79876 16.9176 9.88576 16.9987C9.95614 17.0644 10.0518 17.1001 10.151 17.1001C10.1745 17.1001 10.1981 17.0981 10.2216 17.0941C10.395 17.0633 10.562 17.0231 10.7273 16.9722C11.1134 16.8584 11.4943 16.6928 11.8581 16.4813C12.3303 16.2108 12.7562 15.8639 13.1244 15.4512C13.5706 14.951 13.9192 14.3505 14.1322 13.7152C14.371 13.0083 14.4525 12.2211 14.3671 11.4402Z" fill="#59536B"/>
<path d="M7.59155 13.8917C7.46759 13.6206 7.30539 13.3617 7.1103 13.1237C7.0612 13.0635 7.00182 12.9943 6.97281 12.9642L6.9042 12.8892C6.88635 12.8691 6.8734 12.8551 6.85971 12.8413L6.84096 12.8224C6.81924 12.8007 6.79751 12.7785 6.77906 12.7565C6.77578 12.7526 6.77236 12.7486 6.76879 12.7449L6.74305 12.7181C6.72802 12.7026 6.71328 12.6876 6.70064 12.6718C6.69736 12.6678 6.69394 12.6638 6.69037 12.6599C6.5923 12.5523 6.50793 12.4522 6.43367 12.3553C6.37088 12.2721 6.29811 12.1708 6.23383 12.0469C6.17505 11.935 6.1313 11.8109 6.10317 11.6757C6.07698 11.5541 6.06165 11.4142 6.05749 11.2599C6.05377 11.1318 6.06091 11.0106 6.06671 10.9307C6.0743 10.8252 6.0252 10.7234 5.9377 10.6638C5.8502 10.6041 5.7377 10.5955 5.64202 10.6408C5.5319 10.6934 5.42372 10.7594 5.32014 10.8377C5.15437 10.9638 5.00914 11.1191 4.8889 11.2992C4.78563 11.4529 4.64917 11.708 4.58593 12.0477C4.52864 12.3447 4.53474 12.6795 4.60319 12.9894C4.66822 13.2901 4.79411 13.5971 4.96836 13.8791C5.06018 14.0251 5.14797 14.1472 5.2325 14.2469C5.25735 14.2778 5.31122 14.3401 5.33517 14.3679L5.33473 14.3684L5.36122 14.3984C5.3822 14.4221 5.39693 14.4397 5.41136 14.4572C5.42386 14.4725 5.43458 14.4852 5.44455 14.4956L5.44916 14.5005C5.54098 14.6102 5.65928 14.7535 5.76032 14.8885C5.84812 15.005 5.92475 15.1175 5.99484 15.2325C6.06969 15.3548 6.12341 15.4624 6.16344 15.5702C6.20868 15.6928 6.23859 15.826 6.25243 15.9667C6.26507 16.0895 6.26507 16.2276 6.25287 16.3856C6.24484 16.4795 6.23159 16.5786 6.21284 16.6886C6.19454 16.795 6.23546 16.903 6.31954 16.9708C6.37326 17.0138 6.43933 17.0362 6.50614 17.0362C6.54379 17.0362 6.58189 17.0291 6.6179 17.0145C6.72147 16.9724 6.824 16.9188 6.92072 16.8568C7.09438 16.7474 7.25137 16.6063 7.38753 16.4382C7.55152 16.2355 7.67964 15.9917 7.75807 15.734C7.84482 15.4508 7.87547 15.1227 7.84482 14.8105C7.81506 14.5062 7.72756 14.1885 7.59155 13.8917Z" fill="#59536B"/>
</svg>
