<svg width="28" height="28" viewBox="0 0 28 28" fill="none" xmlns="http://www.w3.org/2000/svg">
<g clip-path="url(#clip0_271_219)">
<path d="M6.35534 7.55233C5.3982 7.7492 4.37019 8.51374 3.94297 9.35177C3.51575 10.1898 3.5 10.3959 3.5 13.9235C3.5 15.806 3.5315 17.3564 3.57875 17.5985C3.85962 19.0344 4.98247 20.1573 6.41834 20.4381C6.85344 20.5169 12.5165 20.5569 12.5165 20.4696C12.5165 20.4063 12.0342 18.5081 12.0103 18.4845C12.0024 18.4687 10.9977 18.2472 9.77966 17.9857C6.94006 17.3688 7.02341 17.3925 6.78978 17.1077L6.58405 16.8625V11.1204L6.78978 10.871C7.02702 10.5862 6.94006 10.6101 9.77966 9.99292L12.0103 9.49417C12.0345 9.47777 12.5169 7.57924 12.5169 7.51952C12.5169 7.44405 6.73531 7.48014 6.35534 7.55889V7.55233ZM15.5225 7.56414C15.5304 7.70655 15.9733 9.44659 16.0213 9.49417C16.037 9.5178 17.1205 9.76324 18.4179 10.0398C19.7153 10.3165 20.87 10.5977 20.9727 10.6567C21.1118 10.7374 21.2286 10.8516 21.3129 10.9888C21.4396 11.2103 21.4553 11.4475 21.4553 13.9944C21.4553 16.5413 21.4396 16.7785 21.3129 17C21.2267 17.1355 21.1102 17.2492 20.9727 17.3321C20.87 17.3879 19.7258 17.6642 18.4179 17.949L16.0213 18.4986C15.9737 18.5462 15.5307 20.2862 15.5225 20.4286C15.5225 20.5156 16.0921 20.5313 18.5915 20.5074C22.0368 20.4759 22.0794 20.468 22.9575 19.8747C23.5881 19.4406 24.0646 18.8175 24.3179 18.095C24.4997 17.5651 24.4997 17.5175 24.4997 13.9977C24.4997 10.4779 24.4997 10.4303 24.3179 9.90039C24.0645 9.17798 23.5881 8.55476 22.9575 8.12064C22.0794 7.52805 22.04 7.51952 18.5915 7.48834C16.0921 7.46472 15.5225 7.47653 15.5225 7.5671V7.56414ZM11.9919 13.832C11.9665 13.9166 11.9611 14.0058 11.9761 14.0928C11.9998 14.2241 12.1422 14.2353 14.0007 14.2589L15.994 14.2746V13.7211H14.0197C12.3666 13.7211 12.0263 13.7368 11.9952 13.8317L11.9919 13.832Z" fill="#59536B"/>
</g>
<defs>
<clipPath id="clip0_271_219">
<rect width="21" height="21" fill="white" transform="translate(3.5 3.5)"/>
</clipPath>
</defs>
</svg>
