<svg width="28" height="28" viewBox="0 0 28 28" fill="none" xmlns="http://www.w3.org/2000/svg">
<path d="M14.1246 4.66669C8.92267 4.66669 4.6665 8.92285 4.6665 14.1248C4.6665 19.3268 8.92267 23.583 14.1246 23.583C19.3266 23.583 23.5828 19.3268 23.5828 14.1248C23.5828 8.92285 19.3266 4.66669 14.1246 4.66669ZM20.6508 10.3416H17.9079C17.6242 9.11201 17.1512 8.07162 16.5838 6.93664C18.2862 7.59871 19.7995 8.73369 20.6508 10.3416ZM14.1246 6.55831C14.8813 7.69329 15.5434 8.92285 15.9217 10.3416H12.3276C12.7059 9.01743 13.368 7.69329 14.1246 6.55831ZM6.84188 16.0165C6.65271 15.449 6.55813 14.7869 6.55813 14.1248C6.55813 13.4628 6.65271 12.8007 6.84188 12.2332H10.0576C9.96306 12.8953 9.96306 13.4628 9.96306 14.1248C9.96306 14.7869 10.0576 15.3544 10.0576 16.0165H6.84188ZM7.59853 17.9081H10.3414C10.6251 19.1376 11.098 20.178 11.6655 21.313C9.96306 20.6509 8.44976 19.516 7.59853 17.9081ZM10.3414 10.3416H7.59853C8.54434 8.73369 9.96306 7.59871 11.6655 6.93664C11.098 8.07162 10.6251 9.11201 10.3414 10.3416ZM14.1246 21.6913C13.368 20.5564 12.7059 19.3268 12.3276 17.9081H15.9217C15.5434 19.2322 14.8813 20.5564 14.1246 21.6913ZM16.3 16.0165H11.9493C11.8547 15.3544 11.7601 14.7869 11.7601 14.1248C11.7601 13.4628 11.8547 12.8953 11.9493 12.2332H16.3946C16.4892 12.8953 16.5838 13.4628 16.5838 14.1248C16.5838 14.7869 16.3946 15.3544 16.3 16.0165ZM16.5838 21.313C17.1512 20.2726 17.6242 19.1377 17.9079 17.9081H20.6508C19.7995 19.516 18.2862 20.6509 16.5838 21.313ZM18.2862 16.0165C18.3808 15.3544 18.3808 14.7869 18.3808 14.1248C18.3808 13.4628 18.2862 12.8953 18.2862 12.2332H21.502C21.6912 12.8007 21.7857 13.4628 21.7857 14.1248C21.7857 14.7869 21.6911 15.449 21.502 16.0165H18.2862Z" fill="#59536B"/>
</svg>
