<svg width="28" height="28" viewBox="0 0 28 28" fill="none" xmlns="http://www.w3.org/2000/svg">
<g clip-path="url(#clip0_271_593)">
<path fill-rule="evenodd" clip-rule="evenodd" d="M4.46893 9.05025C5.83638 7.7375 7.69105 7 9.62492 7H18.3749C20.3088 7 22.1635 7.7375 23.5309 9.05025C24.8984 10.363 25.6666 12.1435 25.6666 14C25.6666 15.8565 24.8984 17.637 23.5309 18.9497C22.1635 20.2625 20.3088 21 18.3749 21H9.62492C7.69105 21 5.83638 20.2625 4.46893 18.9497C3.10148 17.637 2.33325 15.8565 2.33325 14C2.33325 12.1435 3.10148 10.363 4.46893 9.05025ZM9.62492 9.8C8.4646 9.8 7.3518 10.2425 6.53133 11.0302C5.71085 11.8178 5.24992 12.8861 5.24992 14C5.24992 15.1139 5.71085 16.1822 6.53133 16.9698C7.3518 17.7575 8.4646 18.2 9.62492 18.2H18.3749C19.5352 18.2 20.648 17.7575 21.4685 16.9698C22.289 16.1822 22.7499 15.1139 22.7499 14C22.7499 12.8861 22.289 11.8178 21.4685 11.0302C20.648 10.2425 19.5352 9.8 18.3749 9.8H9.62492Z" fill="#59536B"/>
</g>
<defs>
<clipPath id="clip0_271_593">
<rect width="23.3333" height="14" fill="white" transform="translate(2.33325 7)"/>
</clipPath>
</defs>
</svg>
