<svg width="28" height="28" viewBox="0 0 28 28" fill="none" xmlns="http://www.w3.org/2000/svg">
<path d="M13.0435 20.6945C15.6939 20.2263 17.883 19.8389 17.9081 19.8335L17.9538 19.8238L15.4516 16.8475C14.0754 15.2106 12.9494 13.8649 12.9494 13.8571C12.9494 13.8424 15.5331 6.72739 15.5477 6.70208C15.5525 6.69362 17.3108 9.7293 19.8099 14.0608C22.1496 18.116 24.0786 21.4595 24.0965 21.4908L24.1291 21.5478L16.1769 21.5468L8.2247 21.5457L13.0435 20.6945ZM3.5 19.7868C3.5 19.7827 4.67903 17.736 6.12006 15.2386L8.74012 10.698L11.7935 8.13563C13.4729 6.72631 14.8514 5.57151 14.8569 5.5694C14.8624 5.5673 14.8404 5.6229 14.8078 5.69296C14.7753 5.76303 13.2833 8.96319 11.4923 12.8044L8.2359 19.7885L5.86795 19.7915C4.56558 19.7931 3.5 19.791 3.5 19.7868Z" fill="#59536B"/>
</svg>
