<svg width="28" height="28" viewBox="0 0 28 28" fill="none" xmlns="http://www.w3.org/2000/svg">
<path d="M8.74002 12.2469C8.74002 12.5442 8.77209 12.7853 8.82821 12.9621C8.89235 13.1388 8.97252 13.3317 9.08477 13.5406C9.12486 13.6049 9.14089 13.6692 9.14089 13.7254C9.14089 13.8058 9.09279 13.8861 8.98856 13.9665L8.48346 14.3039C8.4113 14.3521 8.33914 14.3762 8.275 14.3762C8.19483 14.3762 8.11465 14.3361 8.03448 14.2638C7.92223 14.1432 7.82602 14.0147 7.74585 13.8861C7.66567 13.7495 7.5855 13.5968 7.4973 13.412C6.87194 14.1513 6.08622 14.5209 5.14016 14.5209C4.46669 14.5209 3.92951 14.328 3.53665 13.9424C3.1438 13.5567 2.94336 13.0424 2.94336 12.3996C2.94336 11.7166 3.18388 11.1622 3.67295 10.7444C4.16202 10.3265 4.81144 10.1176 5.63724 10.1176C5.90984 10.1176 6.19045 10.1417 6.4871 10.1819C6.78375 10.2221 7.08841 10.2864 7.40911 10.3587V9.77212C7.40911 9.16145 7.28083 8.73559 7.03229 8.4865C6.77573 8.23741 6.34278 8.11688 5.72543 8.11688C5.44482 8.11688 5.15619 8.14902 4.85954 8.22134C4.5629 8.29366 4.27427 8.38204 3.99365 8.49453C3.86537 8.55078 3.76916 8.58292 3.71304 8.59899C3.65692 8.61506 3.61683 8.6231 3.58476 8.6231C3.47251 8.6231 3.41639 8.54274 3.41639 8.37401V7.98029C3.41639 7.85172 3.43243 7.7553 3.47251 7.69906C3.5126 7.64281 3.58476 7.58656 3.69701 7.53032C3.97762 7.38569 4.31435 7.26516 4.70721 7.16874C5.10007 7.06428 5.51698 7.01607 5.95794 7.01607C6.91203 7.01607 7.60955 7.23302 8.05853 7.66692C8.49949 8.10081 8.72398 8.75969 8.72398 9.64356V12.2469H8.74002ZM5.48491 13.4683C5.74949 13.4683 6.02208 13.4201 6.31071 13.3236C6.59934 13.2272 6.8559 13.0505 7.07238 12.8094C7.20066 12.6567 7.29687 12.488 7.34497 12.2952C7.39308 12.1023 7.42515 11.8693 7.42515 11.5961V11.2586C7.19264 11.2024 6.9441 11.1542 6.68754 11.122C6.43097 11.0899 6.18243 11.0738 5.93389 11.0738C5.39672 11.0738 5.00386 11.1783 4.73928 11.3952C4.4747 11.6122 4.34642 11.9175 4.34642 12.3193C4.34642 12.6969 4.44263 12.9781 4.64307 13.171C4.83549 13.3719 5.1161 13.4683 5.48491 13.4683ZM11.923 14.3361C11.7787 14.3361 11.6824 14.312 11.6183 14.2557C11.5542 14.2075 11.498 14.095 11.4499 13.9424L9.56582 7.7312C9.51771 7.57049 9.49366 7.46604 9.49366 7.40979C9.49366 7.28123 9.5578 7.20891 9.68608 7.20891H10.4718C10.6241 7.20891 10.7284 7.23302 10.7845 7.28926C10.8486 7.33748 10.8967 7.44997 10.9448 7.60263L12.2918 12.9219L13.5425 7.60263C13.5826 7.44193 13.6307 7.33748 13.6948 7.28926C13.759 7.24105 13.8712 7.20891 14.0155 7.20891H14.6569C14.8093 7.20891 14.9135 7.23302 14.9776 7.28926C15.0418 7.33748 15.0979 7.44997 15.13 7.60263L16.3967 12.9862L17.7838 7.60263C17.8319 7.44193 17.888 7.33748 17.9441 7.28926C18.0083 7.24105 18.1125 7.20891 18.2568 7.20891H19.0024C19.1307 7.20891 19.2029 7.27319 19.2029 7.40979C19.2029 7.44997 19.1948 7.49014 19.1868 7.53835C19.1788 7.58656 19.1628 7.65085 19.1307 7.73923L17.1985 13.9504C17.1504 14.1111 17.0943 14.2155 17.0301 14.2638C16.966 14.312 16.8618 14.3441 16.7255 14.3441H16.0359C15.8836 14.3441 15.7794 14.32 15.7152 14.2638C15.6511 14.2075 15.595 14.1031 15.5629 13.9424L14.3202 8.75969L13.0855 13.9343C13.0454 14.095 12.9973 14.1995 12.9332 14.2557C12.869 14.312 12.7568 14.3361 12.6125 14.3361H11.923ZM22.2255 14.553C21.8086 14.553 21.3916 14.5048 20.9908 14.4084C20.5899 14.312 20.2772 14.2075 20.0688 14.087C19.9405 14.0147 19.8523 13.9343 19.8202 13.862C19.7881 13.7897 19.7721 13.7093 19.7721 13.637V13.2272C19.7721 13.0585 19.8362 12.9781 19.9565 12.9781C20.0046 12.9781 20.0527 12.9862 20.1008 13.0022C20.1489 13.0183 20.2211 13.0505 20.3013 13.0826C20.5739 13.2031 20.8705 13.2995 21.1832 13.3638C21.5039 13.4281 21.8166 13.4602 22.1373 13.4602C22.6424 13.4602 23.0352 13.3719 23.3078 13.1951C23.5804 13.0183 23.7247 12.7612 23.7247 12.4317C23.7247 12.2068 23.6526 12.022 23.5083 11.8693C23.364 11.7166 23.0914 11.58 22.6985 11.4515L21.536 11.0899C20.9507 10.9051 20.5177 10.6319 20.2532 10.2703C19.9886 9.91675 19.8523 9.52303 19.8523 9.1052C19.8523 8.76773 19.9244 8.47043 20.0688 8.2133C20.2131 7.95618 20.4055 7.7312 20.646 7.55442C20.8865 7.36962 21.1591 7.23302 21.4798 7.1366C21.8005 7.04018 22.1373 7 22.49 7C22.6664 7 22.8508 7.00804 23.0272 7.03214C23.2116 7.05625 23.38 7.08839 23.5484 7.12053C23.7087 7.1607 23.861 7.20088 24.0054 7.24909C24.1497 7.2973 24.2619 7.34551 24.3421 7.39372C24.4543 7.458 24.5345 7.52228 24.5826 7.5946C24.6307 7.65888 24.6548 7.74727 24.6548 7.85976V8.23741C24.6548 8.40615 24.5906 8.49453 24.4704 8.49453C24.4062 8.49453 24.302 8.46239 24.1657 8.39811C23.7087 8.1892 23.1956 8.08474 22.6263 8.08474C22.1693 8.08474 21.8086 8.15706 21.56 8.30973C21.3115 8.46239 21.1832 8.69541 21.1832 9.02485C21.1832 9.24984 21.2634 9.44268 21.4237 9.59535C21.5841 9.74801 21.8807 9.90068 22.3056 10.0373L23.4441 10.3989C24.0214 10.5837 24.4383 10.8408 24.6868 11.1702C24.9354 11.4997 25.0556 11.8773 25.0556 12.2952C25.0556 12.6407 24.9835 12.954 24.8472 13.2272C24.7029 13.5004 24.5105 13.7415 24.2619 13.9343C24.0134 14.1352 23.7167 14.2798 23.372 14.3843C23.0112 14.4968 22.6344 14.553 22.2255 14.553Z" fill="#59536B" stroke="#59536B" stroke-width="0.6"/>
<path fill-rule="evenodd" clip-rule="evenodd" d="M23.7407 18.4554C21.1029 20.408 17.2706 21.4445 13.9754 21.4445C9.35728 21.4445 5.19619 19.733 2.05333 16.8886C1.80479 16.6636 2.02928 16.3583 2.32592 16.535C5.72535 18.5117 9.9185 19.7089 14.256 19.7089C17.1824 19.7089 20.3974 19.0982 23.3559 17.8448C23.7968 17.6439 24.1736 18.134 23.7407 18.4554Z" fill="#59536B" stroke="#59536B" stroke-width="0.6"/>
<path fill-rule="evenodd" clip-rule="evenodd" d="M24.8392 17.2034C24.5025 16.7695 22.6103 16.9945 21.7525 17.0989C21.4959 17.1311 21.4558 16.9061 21.6883 16.7373C23.1956 15.6767 25.673 15.982 25.9616 16.3356C26.2503 16.6972 25.8815 19.18 24.4704 20.3692C24.2539 20.554 24.0455 20.4576 24.1417 20.2166C24.4624 19.4211 25.1759 17.6292 24.8392 17.2034Z" fill="#59536B" stroke="#59536B" stroke-width="0.6"/>
</svg>
