<svg width="28" height="28" viewBox="0 0 28 28" fill="none" xmlns="http://www.w3.org/2000/svg">
<g clip-path="url(#clip0_271_191)">
<path d="M17.8567 10.3384L19.5807 8.57398L19.6956 7.83105C16.554 4.90746 11.5599 5.23896 8.72788 8.52276C7.94121 9.43481 7.3576 10.5719 7.04639 11.7461L7.66385 11.657L11.1118 11.0751L11.378 10.7965C12.9118 9.07262 15.5051 8.8407 17.276 10.3074L17.8567 10.3384Z" fill="#59536B"/>
<path d="M22.0368 11.6942C21.6405 10.2007 20.827 8.8581 19.6958 7.83109L17.2761 10.3074C18.2978 11.1618 18.8799 12.449 18.8549 13.799V14.2386C20.0442 14.2386 21.0085 15.2253 21.0085 16.4425C21.0085 17.6597 20.0442 18.6217 18.8549 18.6217H14.5419L14.1184 19.0922V21.7357L14.5419 22.1504H18.8549C21.9485 22.1751 24.4758 19.6533 24.4999 16.4874C24.5145 14.5683 23.59 12.7693 22.0368 11.6942Z" fill="#59536B"/>
<path d="M10.2348 22.1505H14.5418V18.6217H10.2348C9.9279 18.6216 9.63071 18.5541 9.35165 18.4236L8.74061 18.6155L7.0045 20.3799L6.85327 20.9804C7.82689 21.7328 9.01479 22.1559 10.2348 22.1505Z" fill="#59536B"/>
<path d="M10.2348 10.7037C7.14121 10.7225 4.64841 13.3045 4.66685 16.4704C4.67715 18.2384 5.48397 19.9026 6.85332 20.9804L9.3517 18.4236C8.26776 17.9224 7.78611 16.6169 8.27582 15.5077C8.76545 14.3985 10.0411 13.9055 11.1249 14.4066C11.6026 14.6275 11.985 15.019 12.2008 15.5077L14.6992 12.9509C13.6362 11.5287 11.9844 10.6972 10.2348 10.7037Z" fill="#59536B"/>
</g>
<defs>
<clipPath id="clip0_271_191">
<rect width="19.8333" height="16.3333" fill="white" transform="translate(4.66675 5.83334)"/>
</clipPath>
</defs>
</svg>
