<svg width="18" height="18" viewBox="0 0 18 18" fill="none" xmlns="http://www.w3.org/2000/svg">
<path fill-rule="evenodd" clip-rule="evenodd" d="M7.44262 2.7L9.27559 3.35882L11.1086 2.7L11.9814 6.02876H11.4322L11.4323 6.02886H11.9805L14.0753 7.41584H11.8603C11.8828 7.59635 11.8945 7.78161 11.8945 7.97044C11.8945 9.0279 11.5273 9.9733 10.9504 10.6009L14.1128 9.54185L12.5932 12.4023C14.1744 13.1814 15.455 14.5301 16.1999 16.1996H2.69995C3.3721 14.6932 4.48035 13.4479 5.85209 12.6467L4.20266 9.54185L7.71575 10.7183C7.07355 10.0948 6.65745 9.09612 6.65745 7.97044C6.65745 7.78161 6.66916 7.59635 6.69168 7.41584H4.47402L6.56885 6.02886H7.11968L7.11973 6.02876H6.56978L7.44262 2.7Z" fill="#59536B"/>
</svg>
