<svg width="18" height="18" viewBox="0 0 18 18" fill="none" xmlns="http://www.w3.org/2000/svg">
<path fill-rule="evenodd" clip-rule="evenodd" d="M6.67578 2.02371H11.3265V6.67443H6.67578V2.02371Z" fill="#59536B"/>
<path fill-rule="evenodd" clip-rule="evenodd" d="M11.3242 11.3251H15.9749V15.9758H11.3242V11.3251Z" fill="#59536B"/>
<path fill-rule="evenodd" clip-rule="evenodd" d="M2.02466 11.3251H6.67538V15.9758H2.02466V11.3251Z" fill="#59536B"/>
<path fill-rule="evenodd" clip-rule="evenodd" d="M8.61129 9.0002V6.28728H9.38641V9.0002H14.0371V12.1007H13.262V9.77532H9.38641H8.61129H4.73569V12.1007H3.96057V9.0002H8.61129Z" fill="#59536B"/>
<path fill-rule="evenodd" clip-rule="evenodd" d="M8.34127 6.01728H9.65639V8.7302H14.3071V12.3707H12.992V10.0453H5.00567V12.3707H3.69055V8.7302H8.34127V6.01728ZM8.88127 6.55728V9.2702H4.23055V11.8307H4.46567V9.50532H13.532V11.8307H13.7671V9.2702H9.11639V6.55728H8.88127Z" fill="#59536B"/>
</svg>
