<svg width="4" height="46" viewBox="0 0 4 46" fill="none" xmlns="http://www.w3.org/2000/svg">
<path d="M2 2L2 44" stroke="#D8DAEB"/>
<path d="M2 2L2 44" stroke="#59536B" stroke-opacity="0.5"/>
<circle r="1.5" transform="matrix(4.37114e-08 -1 -1 -4.37114e-08 2 2)" fill="#D8DAEB"/>
<circle r="1.5" transform="matrix(4.37114e-08 -1 -1 -4.37114e-08 2 2)" fill="#59536B" fill-opacity="0.5"/>
<circle r="1.5" transform="matrix(4.37114e-08 -1 -1 -4.37114e-08 2 2)" stroke="#D8DAEB"/>
<circle r="1.5" transform="matrix(4.37114e-08 -1 -1 -4.37114e-08 2 2)" stroke="#59536B" stroke-opacity="0.5"/>
<circle r="1.5" transform="matrix(4.37114e-08 -1 -1 -4.37114e-08 2 44)" fill="#D8DAEB"/>
<circle r="1.5" transform="matrix(4.37114e-08 -1 -1 -4.37114e-08 2 44)" fill="#59536B" fill-opacity="0.5"/>
<circle r="1.5" transform="matrix(4.37114e-08 -1 -1 -4.37114e-08 2 44)" stroke="#D8DAEB"/>
<circle r="1.5" transform="matrix(4.37114e-08 -1 -1 -4.37114e-08 2 44)" stroke="#59536B" stroke-opacity="0.5"/>
</svg>
