<svg width="12" height="12" viewBox="0 0 12 12" fill="none" xmlns="http://www.w3.org/2000/svg">
<path d="M6.00005 11.4749L5.6012 11.7765C5.69571 11.9015 5.84335 11.9749 6.00005 11.9749C6.15675 11.9749 6.30439 11.9015 6.39889 11.7765L6.00005 11.4749ZM9.28257 4.38269C9.28257 4.78727 9.0894 5.4058 8.73815 6.16139C8.39576 6.89792 7.93484 7.69968 7.46739 8.44705C7.00102 9.19272 6.53382 9.87527 6.18277 10.3719C6.00741 10.62 5.86142 10.8212 5.75953 10.96C5.70859 11.0294 5.6687 11.0831 5.64169 11.1193C5.62819 11.1374 5.61791 11.1512 5.61108 11.1603C5.60767 11.1648 5.60512 11.1682 5.60347 11.1704C5.60264 11.1715 5.60203 11.1723 5.60166 11.1728C5.60147 11.173 5.60133 11.1732 5.60126 11.1733C5.60122 11.1734 5.60121 11.1734 5.60119 11.1734C5.60119 11.1734 5.6012 11.1734 6.00005 11.4749C6.39889 11.7765 6.39894 11.7764 6.399 11.7763C6.39903 11.7763 6.39911 11.7762 6.39918 11.7761C6.39934 11.7759 6.39955 11.7756 6.39982 11.7752C6.40036 11.7745 6.40112 11.7735 6.40211 11.7722C6.40409 11.7696 6.40697 11.7657 6.41071 11.7607C6.4182 11.7508 6.42916 11.7361 6.44337 11.7171C6.47177 11.679 6.51314 11.6232 6.56563 11.5517C6.67059 11.4088 6.82012 11.2027 6.99937 10.9491C7.35754 10.4424 7.83597 9.74359 8.31522 8.97733C8.79341 8.21277 9.27812 7.37204 9.64495 6.58294C10.0029 5.81289 10.2826 5.02263 10.2826 4.38269H9.28257ZM6.00005 11.4749C6.39889 11.1734 6.39891 11.1734 6.39891 11.1734C6.39889 11.1734 6.39888 11.1734 6.39884 11.1733C6.39876 11.1732 6.39863 11.173 6.39844 11.1728C6.39806 11.1723 6.39746 11.1715 6.39663 11.1704C6.39497 11.1682 6.39243 11.1648 6.38901 11.1603C6.38219 11.1512 6.37191 11.1374 6.35841 11.1193C6.3314 11.0831 6.29151 11.0294 6.24057 10.96C6.13868 10.8212 5.99269 10.62 5.81733 10.3719C5.46628 9.87527 4.99908 9.19272 4.5327 8.44705C4.06526 7.69968 3.60434 6.89792 3.26195 6.16139C2.9107 5.4058 2.71753 4.78727 2.71753 4.38269H1.71753C1.71753 5.02263 1.99717 5.81289 2.35514 6.58294C2.72198 7.37204 3.20669 8.21277 3.68488 8.97733C4.16413 9.74359 4.64256 10.4424 5.00073 10.9491C5.17998 11.2027 5.3295 11.4088 5.43447 11.5517C5.48696 11.6232 5.52833 11.679 5.55673 11.7171C5.57093 11.7361 5.58189 11.7508 5.58938 11.7607C5.59313 11.7657 5.596 11.7696 5.59798 11.7722C5.59897 11.7735 5.59974 11.7745 5.60028 11.7752C5.60055 11.7756 5.60076 11.7759 5.60091 11.7761C5.60099 11.7762 5.60106 11.7763 5.6011 11.7763C5.60116 11.7764 5.6012 11.7765 6.00005 11.4749ZM2.71753 4.38269C2.71753 2.56981 4.18716 1.10017 6.00005 1.10017V0.100174C3.63488 0.100174 1.71753 2.01752 1.71753 4.38269H2.71753ZM6.00005 1.10017C7.81293 1.10017 9.28257 2.56981 9.28257 4.38269H10.2826C10.2826 2.01752 8.36522 0.100174 6.00005 0.100174V1.10017Z" fill="#59536B"/>
<circle cx="5.99987" cy="4.38288" r="1.41844" fill="white" stroke="#59536B"/>
</svg>
