<svg width="18" height="18" viewBox="0 0 18 18" fill="none" xmlns="http://www.w3.org/2000/svg">
<path fill-rule="evenodd" clip-rule="evenodd" d="M3.88081 4.23837C3.88081 3.67485 4.33764 3.21802 4.90116 3.21802C7.74764 3.21802 10.1137 5.27494 10.5941 7.98349C10.6234 7.98095 10.6531 7.97965 10.6831 7.97965H12.6413L12.0023 7.34068C11.6039 6.94221 11.6039 6.29616 12.0023 5.89769C12.4008 5.49922 13.0469 5.49922 13.4453 5.89769L15.8261 8.2785C16.2246 8.67697 16.2246 9.32302 15.8261 9.72149L13.4453 12.1023C13.0469 12.5008 12.4008 12.5008 12.0023 12.1023C11.6039 11.7038 11.6039 11.0578 12.0023 10.6593L12.6413 10.0203H10.6831C10.6531 10.0203 10.6234 10.019 10.5941 10.0165C10.1137 12.7251 7.74764 14.782 4.90116 14.782C4.33764 14.782 3.88081 14.3251 3.88081 13.7616C3.88081 13.1981 4.33764 12.7413 4.90116 12.7413C6.96741 12.7413 8.64244 11.0662 8.64244 9C8.64244 6.93375 6.96741 5.25872 4.90116 5.25872C4.33764 5.25872 3.88081 4.80189 3.88081 4.23837ZM5.00588 10.0203C4.6339 10.7502 3.87532 11.25 3 11.25C1.75736 11.25 0.75 10.2426 0.75 9C0.75 7.75736 1.75736 6.75 3 6.75C3.87532 6.75 4.63389 7.24983 5.00588 7.97965H6.60174C7.16527 7.97965 7.62209 8.43648 7.62209 9C7.62209 9.56352 7.16527 10.0203 6.60174 10.0203H5.00588Z" fill="#59536B"/>
</svg>
