<svg width="12" height="12" viewBox="0 0 12 12" fill="none" xmlns="http://www.w3.org/2000/svg">
<path fill-rule="evenodd" clip-rule="evenodd" d="M-4.1008e-05 5.60417C-4.1008e-05 5.32802 0.223817 5.10417 0.499959 5.10417H8.89579L5.16601 1.37439C4.97075 1.17912 4.97075 0.862542 5.16601 0.66728L5.47974 0.353553C5.675 0.158291 5.99158 0.158291 6.18685 0.353553L11.3131 5.47978C11.5083 5.67504 11.5083 5.99162 11.3131 6.18689L6.18685 11.3131C5.99158 11.5084 5.675 11.5084 5.47974 11.3131L5.16601 10.9994C4.97075 10.8041 4.97075 10.4875 5.16601 10.2923L8.89579 6.5625H0.499959C0.223816 6.5625 -4.1008e-05 6.33864 -4.1008e-05 6.0625V5.60417Z" fill="white"/>
</svg>
