<svg width="85" height="68" viewBox="0 0 85 68" fill="none" xmlns="http://www.w3.org/2000/svg">
<path d="M3.65234 60.3418L5.67969 56.4336H7.20312L4.34961 61.6777V65H2.94336V61.7246L0.101562 56.4336H1.625L3.65234 60.3418ZM13.9355 61.748C13.9355 62.8066 13.6641 63.6328 13.1211 64.2266C12.5781 64.8203 11.8223 65.1172 10.8535 65.1172C10.248 65.1172 9.71289 64.9805 9.24805 64.707C8.7832 64.4336 8.42578 64.041 8.17578 63.5293C7.92578 63.0176 7.80078 62.4238 7.80078 61.748C7.80078 60.6973 8.07031 59.877 8.60938 59.2871C9.14844 58.6973 9.9082 58.4023 10.8887 58.4023C11.8262 58.4023 12.5684 58.7051 13.1152 59.3105C13.6621 59.9121 13.9355 60.7246 13.9355 61.748ZM9.21875 61.748C9.21875 63.2441 9.77148 63.9922 10.877 63.9922C11.9707 63.9922 12.5176 63.2441 12.5176 61.748C12.5176 60.2676 11.9668 59.5273 10.8652 59.5273C10.2871 59.5273 9.86719 59.7188 9.60547 60.1016C9.34766 60.4844 9.21875 61.0332 9.21875 61.748ZM20.0938 65L19.9004 64.1504H19.8301C19.6387 64.4512 19.3652 64.6875 19.0098 64.8594C18.6582 65.0312 18.2559 65.1172 17.8027 65.1172C17.0176 65.1172 16.4316 64.9219 16.0449 64.5312C15.6582 64.1406 15.4648 63.5488 15.4648 62.7559V58.5195H16.8535V62.5156C16.8535 63.0117 16.9551 63.3848 17.1582 63.6348C17.3613 63.8809 17.6797 64.0039 18.1133 64.0039C18.6914 64.0039 19.1152 63.832 19.3848 63.4883C19.6582 63.1406 19.7949 62.5605 19.7949 61.748V58.5195H21.1777V65H20.0938ZM26.4277 58.4023C26.7051 58.4023 26.9336 58.4219 27.1133 58.4609L26.9785 59.7441C26.7832 59.6973 26.5801 59.6738 26.3691 59.6738C25.8184 59.6738 25.3711 59.8535 25.0273 60.2129C24.6875 60.5723 24.5176 61.0391 24.5176 61.6133V65H23.1406V58.5195H24.2188L24.4004 59.6621H24.4707C24.6855 59.2754 24.9648 58.9688 25.3086 58.7422C25.6562 58.5156 26.0293 58.4023 26.4277 58.4023ZM32.8145 65H31.4375V55.8828H32.8145V65ZM40.5371 61.748C40.5371 62.8066 40.2656 63.6328 39.7227 64.2266C39.1797 64.8203 38.4238 65.1172 37.4551 65.1172C36.8496 65.1172 36.3145 64.9805 35.8496 64.707C35.3848 64.4336 35.0273 64.041 34.7773 63.5293C34.5273 63.0176 34.4023 62.4238 34.4023 61.748C34.4023 60.6973 34.6719 59.877 35.2109 59.2871C35.75 58.6973 36.5098 58.4023 37.4902 58.4023C38.4277 58.4023 39.1699 58.7051 39.7168 59.3105C40.2637 59.9121 40.5371 60.7246 40.5371 61.748ZM35.8203 61.748C35.8203 63.2441 36.373 63.9922 37.4785 63.9922C38.5723 63.9922 39.1191 63.2441 39.1191 61.748C39.1191 60.2676 38.5684 59.5273 37.4668 59.5273C36.8887 59.5273 36.4688 59.7188 36.207 60.1016C35.9492 60.4844 35.8203 61.0332 35.8203 61.748ZM47.5977 58.5195V59.2754L46.4902 59.4805C46.5918 59.6172 46.6758 59.7852 46.7422 59.9844C46.8086 60.1836 46.8418 60.3945 46.8418 60.6172C46.8418 61.2852 46.6113 61.8105 46.1504 62.1934C45.6895 62.5762 45.0547 62.7676 44.2461 62.7676C44.0391 62.7676 43.8516 62.752 43.6836 62.7207C43.3867 62.9043 43.2383 63.1191 43.2383 63.3652C43.2383 63.5137 43.3066 63.625 43.4434 63.6992C43.584 63.7734 43.8398 63.8105 44.2109 63.8105H45.3418C46.0566 63.8105 46.5996 63.9629 46.9707 64.2676C47.3418 64.5723 47.5273 65.0117 47.5273 65.5859C47.5273 66.3203 47.2246 66.8867 46.6191 67.2852C46.0137 67.6836 45.1387 67.8828 43.9941 67.8828C43.1113 67.8828 42.4375 67.7266 41.9727 67.4141C41.5078 67.1016 41.2754 66.6562 41.2754 66.0781C41.2754 65.6797 41.4004 65.3438 41.6504 65.0703C41.9043 64.8008 42.2578 64.6133 42.7109 64.5078C42.5273 64.4297 42.375 64.3047 42.2539 64.1328C42.1367 63.957 42.0781 63.7734 42.0781 63.582C42.0781 63.3398 42.1465 63.1348 42.2832 62.9668C42.4199 62.7988 42.623 62.6328 42.8926 62.4688C42.5566 62.3242 42.2832 62.0898 42.0723 61.7656C41.8652 61.4375 41.7617 61.0547 41.7617 60.6172C41.7617 59.9141 41.9824 59.3691 42.4238 58.9824C42.8691 58.5957 43.502 58.4023 44.3223 58.4023C44.5059 58.4023 44.6973 58.416 44.8965 58.4434C45.0996 58.4668 45.252 58.4922 45.3535 58.5195H47.5977ZM42.5059 66.0078C42.5059 66.3047 42.6387 66.5332 42.9043 66.6934C43.1738 66.8535 43.5508 66.9336 44.0352 66.9336C44.7852 66.9336 45.3438 66.8262 45.7109 66.6113C46.0781 66.3965 46.2617 66.1113 46.2617 65.7559C46.2617 65.4746 46.1602 65.2734 45.957 65.1523C45.7578 65.0352 45.3848 64.9766 44.8379 64.9766H43.7949C43.4004 64.9766 43.0859 65.0684 42.8516 65.252C42.6211 65.4395 42.5059 65.6914 42.5059 66.0078ZM43.0977 60.6172C43.0977 61.0234 43.2012 61.3359 43.4082 61.5547C43.6191 61.7734 43.9199 61.8828 44.3105 61.8828C45.1074 61.8828 45.5059 61.457 45.5059 60.6055C45.5059 60.1836 45.4062 59.8594 45.207 59.6328C45.0117 59.4023 44.7129 59.2871 44.3105 59.2871C43.9121 59.2871 43.6094 59.4004 43.4023 59.627C43.1992 59.8535 43.0977 60.1836 43.0977 60.6172ZM54.5527 61.748C54.5527 62.8066 54.2812 63.6328 53.7383 64.2266C53.1953 64.8203 52.4395 65.1172 51.4707 65.1172C50.8652 65.1172 50.3301 64.9805 49.8652 64.707C49.4004 64.4336 49.043 64.041 48.793 63.5293C48.543 63.0176 48.418 62.4238 48.418 61.748C48.418 60.6973 48.6875 59.877 49.2266 59.2871C49.7656 58.6973 50.5254 58.4023 51.5059 58.4023C52.4434 58.4023 53.1855 58.7051 53.7324 59.3105C54.2793 59.9121 54.5527 60.7246 54.5527 61.748ZM49.8359 61.748C49.8359 63.2441 50.3887 63.9922 51.4941 63.9922C52.5879 63.9922 53.1348 63.2441 53.1348 61.748C53.1348 60.2676 52.584 59.5273 51.4824 59.5273C50.9043 59.5273 50.4844 59.7188 50.2227 60.1016C49.9648 60.4844 49.8359 61.0332 49.8359 61.748ZM64.959 65H63.5762V61.0156C63.5762 60.5156 63.4746 60.1426 63.2715 59.8965C63.0723 59.6504 62.7539 59.5273 62.3164 59.5273C61.7383 59.5273 61.3125 59.7012 61.0391 60.0488C60.7695 60.3926 60.6348 60.9707 60.6348 61.7832V65H59.2578V55.8828H60.6348V58.1973C60.6348 58.5684 60.6113 58.9648 60.5645 59.3867H60.6523C60.8398 59.0742 61.0996 58.832 61.4316 58.6602C61.7676 58.4883 62.1582 58.4023 62.6035 58.4023C64.1738 58.4023 64.959 59.1934 64.959 60.7754V65ZM69.7051 65.1172C68.6973 65.1172 67.9082 64.8242 67.3379 64.2383C66.7715 63.6484 66.4883 62.8379 66.4883 61.8066C66.4883 60.748 66.752 59.916 67.2793 59.3105C67.8066 58.7051 68.5312 58.4023 69.4531 58.4023C70.3086 58.4023 70.9844 58.6621 71.4805 59.1816C71.9766 59.7012 72.2246 60.416 72.2246 61.3262V62.0703H67.9062C67.9258 62.6992 68.0957 63.1836 68.416 63.5234C68.7363 63.8594 69.1875 64.0273 69.7695 64.0273C70.1523 64.0273 70.5078 63.9922 70.8359 63.9219C71.168 63.8477 71.5234 63.7266 71.9023 63.5586V64.6777C71.5664 64.8379 71.2266 64.9512 70.8828 65.0176C70.5391 65.084 70.1465 65.1172 69.7051 65.1172ZM69.4531 59.4453C69.0156 59.4453 68.6641 59.584 68.3984 59.8613C68.1367 60.1387 67.9805 60.543 67.9297 61.0742H70.8711C70.8633 60.5391 70.7344 60.1348 70.4844 59.8613C70.2344 59.584 69.8906 59.4453 69.4531 59.4453ZM77.0762 58.4023C77.3535 58.4023 77.582 58.4219 77.7617 58.4609L77.627 59.7441C77.4316 59.6973 77.2285 59.6738 77.0176 59.6738C76.4668 59.6738 76.0195 59.8535 75.6758 60.2129C75.3359 60.5723 75.166 61.0391 75.166 61.6133V65H73.7891V58.5195H74.8672L75.0488 59.6621H75.1191C75.334 59.2754 75.6133 58.9688 75.957 58.7422C76.3047 58.5156 76.6777 58.4023 77.0762 58.4023ZM81.7988 65.1172C80.791 65.1172 80.002 64.8242 79.4316 64.2383C78.8652 63.6484 78.582 62.8379 78.582 61.8066C78.582 60.748 78.8457 59.916 79.373 59.3105C79.9004 58.7051 80.625 58.4023 81.5469 58.4023C82.4023 58.4023 83.0781 58.6621 83.5742 59.1816C84.0703 59.7012 84.3184 60.416 84.3184 61.3262V62.0703H80C80.0195 62.6992 80.1895 63.1836 80.5098 63.5234C80.8301 63.8594 81.2812 64.0273 81.8633 64.0273C82.2461 64.0273 82.6016 63.9922 82.9297 63.9219C83.2617 63.8477 83.6172 63.7266 83.9961 63.5586V64.6777C83.6602 64.8379 83.3203 64.9512 82.9766 65.0176C82.6328 65.084 82.2402 65.1172 81.7988 65.1172ZM81.5469 59.4453C81.1094 59.4453 80.7578 59.584 80.4922 59.8613C80.2305 60.1387 80.0742 60.543 80.0234 61.0742H82.9648C82.957 60.5391 82.8281 60.1348 82.5781 59.8613C82.3281 59.584 81.9844 59.4453 81.5469 59.4453Z" fill="#6B55F0"/>
<path d="M45.0302 12.9285L55.9836 19.2894V32.0114L45.0302 38.3723L34.0768 32.0114V19.2894L45.0302 12.9285Z" fill="#FDFCFE"/>
<path opacity="0.5" d="M34.0194 19.7788L44.4254 13.6365L54.8314 19.7788L61.8508 15.6369L44.4254 5.34949L27 15.6369L34.0194 19.7788Z" fill="#6B55F0"/>
<path opacity="0.5" d="M54.8307 19.7788V32.0634L44.4247 38.209V46.4928L61.8501 36.2086V15.637L54.8307 19.7788Z" fill="#6B55F0"/>
<path opacity="0.5" d="M36.8593 21.4576L44.4234 25.9209L51.9842 21.4576L44.4234 16.9944L36.8593 21.4576Z" fill="#6B55F0"/>
<path opacity="0.5" d="M51.9855 21.458L44.4247 25.9213V34.8511L51.9855 30.3845V21.458Z" fill="#6B55F0"/>
<path opacity="0.5" d="M36.8593 21.458V30.3845L44.4234 34.8511V25.9213L36.8593 21.458Z" fill="#6B55F0"/>
<path opacity="0.5" d="M34.0194 32.0634V27.8035V19.7788L27 15.637V36.2086L34.0194 40.3505V32.0634Z" fill="#6B55F0"/>
<path opacity="0.5" d="M36.8606 33.7422V42.0292L44.4247 46.4925V38.2087L36.8606 33.7422Z" fill="#6B55F0"/>
<rect x="64.6145" y="-0.000244141" width="2.20755" height="9.56604" fill="#B59AEF"/>
<rect x="70.5013" y="3.67896" width="2.20755" height="9.56604" transform="rotate(90 70.5013 3.67896)" fill="#B59AEF"/>
</svg>
