<svg width="12" height="12" viewBox="0 0 12 12" fill="none" xmlns="http://www.w3.org/2000/svg">
<path fill-rule="evenodd" clip-rule="evenodd" d="M11.6667 5.60417C11.6667 5.32802 11.4428 5.10417 11.1667 5.10417H2.77083L6.50061 1.37439C6.69588 1.17912 6.69588 0.862542 6.50061 0.66728L6.18689 0.353553C5.99162 0.158291 5.67504 0.158291 5.47978 0.353553L0.353553 5.47978C0.158291 5.67504 0.158291 5.99162 0.353553 6.18689L5.47978 11.3131C5.67504 11.5084 5.99162 11.5084 6.18689 11.3131L6.50061 10.9994C6.69588 10.8041 6.69588 10.4875 6.50061 10.2923L2.77083 6.5625H11.1667C11.4428 6.5625 11.6667 6.33864 11.6667 6.0625V5.60417Z" fill="#6B55F0"/>
</svg>
