<svg width="42" height="42" viewBox="0 0 42 42" fill="none" xmlns="http://www.w3.org/2000/svg">
<path d="M5.71069 8.10469C3.79641 8.49844 1.74038 10.0275 0.885938 11.7036C0.0315002 13.3796 0 13.7918 0 20.8471C0 24.612 0.0629999 27.7128 0.1575 28.1971C0.71925 31.0688 2.96494 33.3145 5.83669 33.8763C6.70687 34.0338 18.0331 34.1138 18.0331 33.9393C18.0331 33.8126 17.0684 30.0162 17.0205 29.969C17.0047 29.9375 14.9953 29.4945 12.5593 28.9715C6.88013 27.7377 7.04681 27.785 6.57956 27.2153L6.16809 26.7251V15.2408L6.57956 14.742C7.05403 14.1724 6.88013 14.2203 12.5593 12.9859L17.0205 11.9884C17.0691 11.9556 18.0338 8.1585 18.0338 8.03906C18.0338 7.88813 6.47062 7.96031 5.71069 8.11781V8.10469ZM24.045 8.12831C24.0607 8.41313 24.9467 11.8932 25.0425 11.9884C25.074 12.0356 27.2409 12.5265 29.8357 13.0797C32.4306 13.6329 34.7399 14.1953 34.9453 14.3135C35.2236 14.4749 35.4572 14.7033 35.6258 14.9776C35.8792 15.4206 35.9107 15.895 35.9107 20.9888C35.9107 26.0827 35.8792 26.5571 35.6258 27.0001C35.4533 27.271 35.2204 27.4984 34.9453 27.6642C34.7399 27.7758 32.4516 28.3283 29.8357 28.898L25.0425 29.9972C24.9473 30.0923 24.0614 33.5724 24.045 33.8573C24.045 34.0312 25.1842 34.0627 30.1829 34.0148C37.0735 33.9518 37.1588 33.936 38.915 32.7495C40.1763 31.8813 41.1292 30.6351 41.6358 29.19C41.9993 28.1302 41.9993 28.035 41.9993 20.9954C41.9993 13.9558 41.9993 13.8607 41.6358 12.8008C41.1289 11.356 40.1762 10.1096 38.915 9.24131C37.1588 8.05613 37.0801 8.03906 30.1829 7.97672C25.1842 7.92947 24.045 7.9531 24.045 8.13422V8.12831ZM16.9837 20.664C16.9331 20.8331 16.9223 21.0117 16.9522 21.1857C16.9995 21.4482 17.2843 21.4705 21.0013 21.5178L24.988 21.5493V20.4422H21.0394C17.7332 20.4422 17.0527 20.4737 16.9903 20.6633L16.9837 20.664Z" fill="#FF6600"/>
</svg>
