<svg width="38" height="39" viewBox="0 0 38 39" fill="none" xmlns="http://www.w3.org/2000/svg">
<path d="M19.4613 24.3334C13.0099 24.3334 7.76099 19.0845 7.76099 12.6332C7.76099 6.18122 13.0093 0.932281 19.4613 0.932281C25.9132 0.932281 31.1621 6.18122 31.1621 12.6332C31.1621 19.0845 25.9132 24.3334 19.4613 24.3334ZM19.4613 2.09291C13.6494 2.09291 8.92161 6.82073 8.92161 12.6332C8.92161 18.445 13.6494 23.1728 19.4613 23.1728C25.2737 23.1728 30.0015 18.445 30.0015 12.6332C30.0015 6.82073 25.2731 2.09291 19.4613 2.09291Z" fill="#59536B"/>
<path d="M20.0417 1.17773H18.8811V23.5024H20.0417V1.17773Z" fill="#59536B"/>
<path d="M30.8211 12.0546H8.32349V13.2152H30.8211V12.0546Z" fill="#59536B"/>
<path d="M19.4481 9.96236C13.5777 9.96236 11.2367 5.0825 11.1398 4.87416L12.1913 4.38322C12.1919 4.38322 12.1919 4.3838 12.1919 4.38438C12.2847 4.58052 14.3425 8.80115 19.4487 8.80115C24.5856 8.80115 26.6272 4.47839 26.6469 4.43486L27.7019 4.91885C27.6073 5.12486 25.3215 9.96236 19.4481 9.96236Z" fill="#59536B"/>
<path d="M12.1913 20.8818L11.1398 20.3921C11.2367 20.1843 13.5777 15.3039 19.4481 15.3039C25.3215 15.3039 27.6073 20.1408 27.7019 20.3462L26.6469 20.8302C26.5645 20.6526 24.5613 16.4645 19.4487 16.4645C14.3094 16.4651 12.2122 20.8383 12.1913 20.8818Z" fill="#59536B"/>
<path d="M18.8307 24.2613C18.6091 24.0588 13.4077 19.2225 13.4077 12.633C13.4077 6.03253 18.7286 1.37493 18.9555 1.17995L19.7134 2.05912C19.6618 2.10381 14.5689 6.57396 14.5689 12.6336C14.5689 18.7176 19.5637 23.3595 19.6142 23.406L18.8307 24.2613Z" fill="#59536B"/>
<path d="M20.0957 24.2615L19.3117 23.4055C19.3622 23.3591 24.3575 18.7027 24.3575 12.6332C24.3575 6.55959 19.2653 2.10336 19.2136 2.05926L19.9709 1.1795C20.1978 1.37449 25.5187 6.03209 25.5187 12.6326C25.5187 19.2232 20.3174 24.0595 20.0957 24.2615Z" fill="#59536B"/>
<path d="M3.003 30.0514L3.84213 33.6899C4.02319 34.5459 4.20425 35.4181 4.35223 36.2903H4.3853C4.55011 35.4175 4.81358 34.5291 5.04396 33.7062L6.08098 30.0514H7.72733L8.73128 33.607C8.97849 34.5453 9.19205 35.4175 9.3731 36.2903H9.40618C9.53791 35.4175 9.71897 34.5453 9.93253 33.607L10.8216 30.0514H12.8132L10.2946 38.0678H8.41849L7.46329 34.8088C7.21666 33.9691 7.0356 33.2118 6.85454 32.2403H6.82088C6.65665 33.228 6.44252 34.0178 6.21213 34.8088L5.19136 38.0678H3.29896L0.928955 30.0514H3.003Z" fill="#59536B"/>
<path d="M15.5972 30.0515L16.4363 33.6901C16.6174 34.546 16.7985 35.4182 16.9464 36.2904H16.9795C17.1443 35.4176 17.4078 34.5292 17.6382 33.7063L18.6752 30.0515H20.3215L21.3255 33.6071C21.5727 34.5454 21.7863 35.4176 21.9673 36.2904H22.0004C22.1321 35.4176 22.3132 34.5454 22.5267 33.6071L23.4158 30.0515H25.4074L22.8888 38.0679H21.0127L20.0575 34.8089C19.8109 33.9692 19.6298 33.2119 19.4487 32.2404H19.4157C19.2514 33.2281 19.0373 34.0179 18.8069 34.8089L17.7861 38.0679H15.8926L13.5226 30.0515H15.5972Z" fill="#59536B"/>
<path d="M28.1892 30.0515L29.0284 33.6901C29.2094 34.546 29.3905 35.4182 29.5385 36.2904H29.5721C29.7364 35.4176 29.9998 34.5292 30.2302 33.7063L31.2672 30.0515H32.9136L33.9175 33.6071C34.1647 34.5454 34.3783 35.4176 34.5594 36.2904H34.5924C34.7242 35.4176 34.9052 34.5454 35.1188 33.6071L36.0078 30.0515H38L35.4809 38.0679H33.6047L32.6495 34.8089C32.4029 33.9692 32.2218 33.2119 32.0408 32.2404H32.0077C31.8435 33.2281 31.6293 34.0179 31.399 34.8089L30.3782 38.0679H28.4846L26.1146 30.0515H28.1892Z" fill="#59536B"/>
</svg>
