<svg width="99" height="12" viewBox="0 0 99 12" fill="none" xmlns="http://www.w3.org/2000/svg">
<g clip-path="url(#clip0_201_584)">
<path d="M42.6815 7.80801H49.2129L45.7629 2.60801L39.42 12H36.5357L44.25 0.732007C44.4182 0.507158 44.6417 0.323197 44.9017 0.195536C45.1617 0.0678755 45.4507 0.000232376 45.7445 -0.00172624C46.0383 -0.00368485 46.3283 0.0600981 46.5902 0.184279C46.8522 0.30846 47.0784 0.489423 47.25 0.712007L54.9857 12H52.1015L50.7429 9.90001H44.1343L42.6943 7.80801H42.6815ZM72.6643 9.90001V0.112007H70.2129V10.864C70.2124 11.0134 70.2445 11.1614 70.3071 11.2989C70.3697 11.4364 70.4616 11.5606 70.5772 11.664C70.6932 11.7748 70.8319 11.8627 70.985 11.9225C71.1382 11.9823 71.3026 12.0127 71.4686 12.012H82.6115L84.0643 9.91201H72.6515L72.6643 9.90001ZM32.1343 8.15201C33.2766 8.15201 34.3722 7.72847 35.1799 6.97458C35.9877 6.22068 36.4415 5.19818 36.4415 4.13201C36.4415 3.06584 35.9877 2.04333 35.1799 1.28944C34.3722 0.535542 33.2766 0.112007 32.1343 0.112007H21.42V12H23.8672V2.21601H31.9843C32.531 2.21601 33.0554 2.41871 33.442 2.77953C33.8286 3.14035 34.0457 3.62973 34.0457 4.14001C34.0457 4.65028 33.8286 5.13966 33.442 5.50048C33.0554 5.8613 32.531 6.06401 31.9843 6.06401H25.08L32.3915 12H35.9443L31.0329 8.15201H32.1343ZM6.3686 12H13.77C15.4299 11.9598 17.0073 11.3161 18.1661 10.2062C19.3249 9.09622 19.9734 7.60775 19.9734 6.05801C19.9734 4.50826 19.3249 3.01979 18.1661 1.90983C17.0073 0.799876 15.4299 0.156206 13.77 0.116007H6.3686C5.51865 0.0954233 4.67289 0.233894 3.8812 0.523253C3.0895 0.812611 2.36789 1.247 1.75894 1.8008C1.14998 2.3546 0.666006 3.01661 0.335547 3.74777C0.0050883 4.47893 -0.165161 5.26445 -0.165161 6.05801C-0.165161 6.85156 0.0050883 7.63708 0.335547 8.36825C0.666006 9.09941 1.14998 9.76141 1.75894 10.3152C2.36789 10.869 3.0895 11.3034 3.8812 11.5928C4.67289 11.8821 5.51865 12.0206 6.3686 12ZM13.6029 9.90801H6.53146C5.46158 9.8758 4.44707 9.45649 3.70245 8.73874C2.95784 8.02099 2.54151 7.06108 2.54151 6.06201C2.54151 5.06293 2.95784 4.10303 3.70245 3.38528C4.44707 2.66753 5.46158 2.24821 6.53146 2.21601H13.6029C14.1552 2.19938 14.7055 2.28656 15.221 2.47235C15.7365 2.65815 16.2067 2.93877 16.6037 3.29755C17.0007 3.65633 17.3164 4.08593 17.532 4.56083C17.7476 5.03573 17.8587 5.54624 17.8587 6.06201C17.8587 6.57778 17.7476 7.08828 17.532 7.56318C17.3164 8.03808 17.0007 8.46769 16.6037 8.82646C16.2067 9.18524 15.7365 9.46587 15.221 9.65166C14.7055 9.83746 14.1552 9.92463 13.6029 9.90801ZM60.0986 12H67.6543L69.0857 9.90801H60.2657C59.7134 9.92463 59.1632 9.83746 58.6476 9.65166C58.1321 9.46587 57.6619 9.18524 57.2649 8.82646C56.8679 8.46769 56.5522 8.03808 56.3367 7.56318C56.1211 7.08828 56.01 6.57778 56.01 6.06201C56.01 5.54624 56.1211 5.03573 56.3367 4.56083C56.5522 4.08593 56.8679 3.65633 57.2649 3.29755C57.6619 2.93877 58.1321 2.65815 58.6476 2.47235C59.1632 2.28656 59.7134 2.19938 60.2657 2.21601H67.4443L68.8929 0.116007H60.0986C59.2486 0.0954233 58.4029 0.233894 57.6112 0.523253C56.8195 0.812611 56.0979 1.247 55.4889 1.8008C54.88 2.3546 54.396 3.01661 54.0655 3.74777C53.7351 4.47893 53.5648 5.26445 53.5648 6.05801C53.5648 6.85156 53.7351 7.63708 54.0655 8.36825C54.396 9.09941 54.88 9.76141 55.4889 10.3152C56.0979 10.869 56.8195 11.3034 57.6112 11.5928C58.4029 11.8821 59.2486 12.0206 60.0986 12ZM90.0429 9.90801C89.1449 9.90833 88.2714 9.63502 87.5551 9.12963C86.8388 8.62425 86.3189 7.91441 86.0743 7.10801H96.54L97.98 5.01201H86.0743C86.3182 4.20527 86.838 3.49506 87.5545 2.98957C88.2709 2.48408 89.1448 2.21103 90.0429 2.21201H97.2257L98.6615 0.112007H89.8757C88.2159 0.152206 86.6384 0.795876 85.4796 1.90583C84.3209 3.01579 83.6724 4.50426 83.6724 6.05401C83.6724 7.60375 84.3209 9.09222 85.4796 10.2022C86.6384 11.3121 88.2159 11.9558 89.8757 11.996H97.4315L98.8672 9.90401H90.0386" fill="#C74634"/>
</g>
<defs>
<clipPath id="clip0_201_584">
<rect width="99" height="12" fill="white"/>
</clipPath>
</defs>
</svg>
