<svg width="16" height="20" viewBox="0 0 16 20" fill="none" xmlns="http://www.w3.org/2000/svg">
<path d="M16 4.15094C16 17.7358 8 20 8 20C8 20 0 18.1132 0 4.15094L8 0L16 4.15094Z" fill="#D8DAEB"/>
<path d="M16 4.15094C16 17.7358 8 20 8 20C8 20 0 18.1132 0 4.15094L8 0L16 4.15094Z" fill="#59536B" fill-opacity="0.8"/>
<path d="M8 20C8 20 0 18.1132 0 4.15094L8 0C8 6.4 8 20 8 20Z" fill="#D8DAEB"/>
<path d="M8 20C8 20 0 18.1132 0 4.15094L8 0C8 6.4 8 20 8 20Z" fill="#59536B" fill-opacity="0.5"/>
</svg>
