<svg width="18" height="18" viewBox="0 0 18 18" fill="none" xmlns="http://www.w3.org/2000/svg">
<path d="M4.10572 15.5172H13.8959C14.3014 15.5172 14.6301 15.252 14.6301 14.9248V8.21003C14.6301 7.88282 14.3014 7.61755 13.8959 7.61755H12.8513V5.52978C12.8513 3.67853 11.2951 2.17241 9.00079 2.17241C6.70652 2.17241 5.15033 3.67853 5.15033 5.52978V7.61755H4.10572C3.70021 7.61755 3.37146 7.88282 3.37146 8.21003V14.9248C3.37146 15.252 3.70021 15.5172 4.10572 15.5172ZM6.61885 5.52978C6.61885 4.33191 7.51626 3.35737 9.00079 3.35737C10.4853 3.35737 11.3827 4.33191 11.3827 5.52978V7.61755H6.61885V5.52978Z" fill="#59536B"/>
</svg>
