<svg width="15" height="18" viewBox="0 0 15 18" fill="none" xmlns="http://www.w3.org/2000/svg">
<path d="M7.70306 3.23761L12.382 5.9548V11.3892L7.70306 14.1064L3.02413 11.3892V5.9548L7.70306 3.23761Z" fill="#FDFCFE"/>
<path d="M4.21155 6.88104L7.4427 8.7876L10.6724 6.88104L7.4427 4.97449L4.21155 6.88104Z" fill="#FFA400"/>
<path d="M2.99845 6.16373L7.44356 3.53994L11.8887 6.16373L14.8871 4.39446L7.44356 0L0 4.39446L2.99845 6.16373Z" fill="#FFA400"/>
<path d="M10.6714 6.88098L7.44165 8.78754V12.602L10.6714 10.6941V6.88098Z" fill="#FF6C0E"/>
<path d="M11.8868 6.1638V11.4114L7.44165 14.0366V17.5751L14.8852 13.182V4.39453L11.8868 6.1638Z" fill="#FF6C0E"/>
<path d="M4.21155 6.88098V10.6941L7.4427 12.602V8.78754L4.21155 6.88098Z" fill="#415364"/>
<path d="M2.99845 11.4114V9.59168V6.1638L0 4.39453V13.182L2.99845 14.9513V11.4114Z" fill="#415364"/>
<path d="M4.21155 12.1285V15.6684L7.4427 17.575V14.0364L4.21155 12.1285Z" fill="#415364"/>
</svg>
